DBRep_DrawableShape

CASCADE Topology V1, (c) Matra-Datavision
Locations 0
Curve2ds 0
Curves 77
1 362.471637400286 131.928886779436 67.029474561769504 -0 0 -1 
1 373.96720561419397 136.11293143527499 -49.300000000000502 -0.93969262078590832 -0.34202014332566905 0 
1 370.003443709436 134.67024008622499 -24.888975997412999 -0.26943806323630193 -0.098067434996348471 0.95801143431208979 
1 379.67803140702802 138.19150203694701 -28.624999999999901 -2.08642991492181e-15 -7.5939838491410396e-16 1 
1 396.20310536074697 144.20613707514801 -80.855754306230594 0.26943806310041818 0.098067434946891158 0.95801143435536951 
1 371.65017411922202 135.26960093924799 -149.59999999999999 0.93969262078590832 0.34202014332566905 1.3503855079355603e-14 
1 376.70180931506502 137.515465566508 -149.59999999999999 -0.43464652138795995 0.90060113338000292 -1.3559274911491098e-15 
1 369.53758012306099 161.038868107247 -149.59999999999999 -0.35551267224661215 0.93467146092735343 1.4225926831017506e-15 
1 383.69637400807898 153.821504029225 -149.59999999999999 -0.15684554062724501 0.98762314492186087 4.1587200440144302e-15 
1 388.82237057310499 145.498637618011 -149.59999999999999 -0.093931427050311531 0.99557866942411533 4.9711018429725426e-15 
1 395.90546141561799 70.423036818267605 -149.59999999999999 0.056639071537962028 -0.99839471932463542 0 
1 392.461370590397 69.810784488042003 -149.59999999999999 0.98480775301220547 0.17364817766694507 1.3002051086404108e-14 
1 387.11407320155899 84.7015509394883 -149.59999999999999 -0.12186934340514406 0.99254615164132254 4.3685130576094816e-15 
1 384.204427027387 101.875113745026 -149.59999999999999 -0.51503807491005182 0.85716730070211367 0 
1 378.22149019464598 102.939572001098 -149.59999999999999 0.99254615164132209 0.12186934340514703 0 
1 362.471637400286 131.928886779436 -149.59999999999999 0.3420201433256691 -0.93969262078590832 0 
1 392.500249991884 122.59000657214899 -123.60537497372199 0.27202550325969094 0.092579329444810593 0.95782628557367389 
1 394.71787533999299 103.27106638107399 -139.59999999999999 -0.27202550422048705 -0.092579330268908799 -0.9578262852211511 
1 388.03826690420402 120.832293756067 -139.60000161454099 0.35551267224654115 -0.93467146092738029 -2.5596585570101304e-13 
1 394.71787533999299 103.27106638107399 -99.450000000000301 1.59647346183044e-15 5.8106881990220098e-16 -1 
1 387.95772736462499 121.044041114176 -387172798.24182898 2.0406810950855098e-15 8.5414536528776702e-16 -1 
1 387.93884029653202 121.09369436051701 -59.299998464062803 -0.35551267224654115 0.93467146092738029 -8.4144055906280715e-15 
1 391.87784569769002 102.304509796677 -49.300000000000402 0.272025504220478 0.092579330268906301 -0.95782628522115398 
1 381.76794607833398 128.88425050561099 -49.300000000000502 0.35551267224654293 -0.93467146092737952 0 
1 385.027722510481 120.046856842826 -48.983183102401902 0.2720255030199491 0.092579330283083239 -0.95782628556073746 
1 373.24527191504501 102.32856922468 -145.42595594052199 0 0 1 
1 371.52221236647699 107.06263642674701 -134.56640725246501 0.20583286047400398 -0.56552113633407886 -0.79863551004729405 
1 369.79915281790898 111.79670362881301 -99.450000000000202 0 0 1 
1 371.52221236647699 107.06263642674701 -64.333592747535803 0.20583286047400398 -0.56552113633407886 0.79863551004729405 
1 373.24527191504501 102.32856922468 -53.474044059478899 0 0 1 
1 362.471637400286 131.928886779436 -49.300000000000502 -0.3420201433256691 0.93969262078590832 0 
1 390.60605931679203 69.483643052892802 -144.10876590254799 -0.27764256694910516 -0.048955875546288122 -0.95943625492651041 
1 390.26074089282201 85.518072683202405 -138.61753180509601 0.12186934340514603 -0.99254615164132221 0 
1 386.76875477758801 100.735980569798 -144.10876590254799 -0.27169117031191786 -0.093550772225386158 -0.95782679070413057 
1 384.22591326053902 103.676822450719 -146.374951865285 -0.30354333598383104 -0.037270435223777806 -0.95208841912820119 
1 386.55112920492002 104.22679523067799 -138.61753180509601 0.51503807491004927 -0.85716730070211533 0 
1 385.01500624100998 105.492176079109 -140.88371776783299 0.084297558053806204 -0.59548505699223897 -0.79893145425944712 
1 379.24969498093702 103.065819674301 -142.20090780580699 0.98055442473804677 0.12039694448286098 -0.15497611392027197 
1 390.26074089282201 85.518072683202405 -60.282468194901199 0.12186934340514603 -0.99254615164132221 -7.1624822116079529e-16 
1 390.60605931679203 69.483643052893001 -54.791234097450797 0.2776425669491091 0.048955875546289315 -0.9594362549265093 
1 387.11407320156002 84.701550939488598 -49.300000000000502 -0.12186934340514703 0.99254615164132209 0 
1 386.76875477758898 100.735980569798 -54.791234097450797 0.27169117031191486 0.093550772225384743 -0.95782679070413157 
1 392.19511781099197 69.763836939344401 -99.449999999998496 -6.9441737898138999e-16 2.1058168045431701e-16 -1 
1 388.32636397465001 101.27230842706 -99.449999999998496 -1.0910126583323199e-15 -3.9709613284060799e-16 -1 
1 382.970045824973 110.18671882451 -134.14733687552999 -0.31786222160696997 0.52901157363484697 0.78683566456755405 
1 386.55112920492098 104.226795230677 -60.282468194901199 0.51503807491004683 -0.85716730070211666 0 
1 382.97004582497402 110.186718824509 -64.752663124469095 -0.31786222160697103 0.52901157363484608 -0.78683566456755427 
1 381.164197214757 113.192155614722 -99.450000000000102 4.8238750873257706e-17 -1.3253487876697201e-16 1 
1 375.48167501633299 112.49442962176801 -128.77902228492599 -0.98055442473804655 -0.12039694448286307 0.15497611392027208 
1 375.48167501633299 112.49442962176801 -70.120977715073707 -0.98055442473804455 -0.12039694448286196 -0.15497611392028496 
1 385.01500624101101 105.49217607910801 -58.016282232165501 0.084297558053809993 -0.59548505699224286 0.7989314542594439 
1 379.24969498093799 103.065819674301 -56.699092194193497 0.98055442473804388 0.12039694448286099 0.15497611392028998 
1 378.221490194647 102.939572001098 -49.300000000000502 0.99254615164132198 0.121869343405148 0 
1 384.22591326053998 103.676822450719 -52.525048134715099 0.30354333598382688 0.037270435223777092 -0.95208841912820263 
1 384.20442702738802 101.875113745026 -49.300000000000502 -0.51503807491005416 0.85716730070211222 0 
1 396.01407734127099 95.109156951985895 -59.300000043195901 0.15684554062724207 -0.98762314492186132 2.3691196379773509e-14 
7 0 0  1 2 2  397.2303453115 87.450575184106995 -139.59999999999999  397.2303453115 87.450575184106796 -59.299999999999997 
 -803.00000000000398 2 -0 2
1 394.71787533999299 103.271066381075 -139.59999999999999 0.15684554062724207 -0.98762314492186132 -1.3607753288030906e-14 
1 397.263041961287 87.104023576019401 -59.300000043384202 -0.093931427050312613 0.99557866942411521 3.7649292416697305e-14 
7 0 0  5 6 2  394.38759541416601 86.483092806410099 -49.290421737144797  394.956145391353 86.676589281353998 -51.292337390423803  395.52469536854602 86.870085756303197 -53.294253043700699  396.09324534371598 87.063582229432399 -55.296168697719899  396.66179532760799 87.257078706769704 -57.298084348859902  397.2303453115 87.450575184106896 -59.299999999999997 
 -104.50306508910199 6 -0 6
1 391.94610021302498 112.390244535509 -49.300000000000502 0.093931427050301816 -0.99557866942411621 0 
1 395.90518247303402 70.427953826892704 -49.300000000000502 0.27202550422048194 0.092579330268907606 -0.95782628522115287 
1 398.74521211533698 71.394510411289701 -99.450000000000301 1.59647346183044e-15 5.8106881990220098e-16 -1 
1 397.23034531149602 87.450575184104594 -139.59999999999999 0.093931427050312613 -0.99557866942411521 -1.1889250230730604e-15 
7 0 0  5 6 2  397.2303453115 87.450575184106995 -139.59999999999999  396.66233938481901 87.257263869573606 -141.60000000073501  396.09433345813699 87.063952555040203 -143.60000000146999  395.52632753877901 86.870641238643401 -145.60000000408999  394.958321603988 86.677329919176501 -147.60000000204499  394.39031566919698 86.484018599709898 -149.59999999999999 
 -104.40306508911 6 -0 6
1 398.74521211533698 71.394510411289801 -139.59999999999999 -0.27202550422048305 -0.092579330268908522 -0.95782628522115232 
1 398.77193221774701 70.923506766367495 -139.59999999999999 -1.6536311183080998e-15 -3.0760733359094796e-16 1 
1 398.75857216654202 71.159008588828598 -139.59999999999999 0.056639071552263213 -0.99839471932382418 0 
1 398.75857216654202 71.159008588828598 -59.299999999999997 0.056639071552263213 -0.99839471932382418 0 
1 398.77193221774701 70.923506766367396 -59.299999999999997 -0.27520067432632811 -0.048525303992898908 0.96016138420722319 
1 392.461370590397 69.810784488042103 -49.300000000000502 0.98480775301220513 0.17364817766694704 0 
1 397.33883628796798 70.670813288003899 -144.60000000002501 0.27520067432636791 0.048525303992905881 0.96016138420721153 
1 395.90546141561799 70.423036818267704 -49.300000000000502 0.056639071552863997 -0.99839471932378998 0 
1 390.254175350163 112.52841803486101 -49.300000000000502 -0.15684554062724906 0.98762314492186032 0 
1 379.62240767083699 138.306700222606 -139.612232935256 0.43481756439582897 -0.90051833877566068 0.00063813917273136483 
1 376.70180931652902 137.515465564122 -49.300000000000601 0.43464652072984711 -0.90060113369762018 0 
1 379.61126707956703 138.32977267313601 -59.287750708923802 -0.4348175643951479 0.9005183387742508 0.00063814162628161994 
Polygon3D 0
PolygonOnTriangulations 0
Surfaces 31
1 371.07483440365701 135.06019440819099 2.0500000000002498 -0.3420201433256691 0.93969262078590832 0 -0.93969262078590832 -0.3420201433256691 0 0 0 1 
1 362.471637400286 131.928886779436 132.008949123539 -0.93969262078590832 -0.3420201433256691 0 0.3420201433256691 -0.93969262078590832 0 0 0 1 
1 376.88115188473802 137.10639147216901 -49.300000000000502 0 0 1 -0.28734366750154894 0.95782755063046676 0 -0.95782755063046676 -0.28734366750154894 0 
1 376.86897661781398 137.16908970725001 -49.300000000000402 -0.86314398927066227 -0.41656902016663011 -0.28539920326332507 0.43464652072984716 -0.90060113369762007 -2.7755575615628907e-17 -0.25703084601534809 -0.12404777071747472 0.95840873054071207 
1 379.67803140702802 138.19150203694701 -59.299999999999997 0.90051852213097783 0.43481765292940888 2.2090686068819796e-15 -0.43481765292940888 0.90051852213097783 0 -1.9893071971552978e-15 -9.605420268044612e-16 1 
1 376.86897661781302 137.169089707251 -149.59999999999999 -0.86314398901007261 -0.41656902081851777 0.28539920309993988 0.43464652138795956 -0.90060113338000303 1.3877787807814459e-16 0.25703084577755553 0.12404777083428477 0.95840873058936571 
1 348.545287311366 200.53989513096499 -149.59999999999999 1.2136370296182e-14 6.13822755728468e-15 -1 0.54171581714429273 -0.84056170115922568 1.4149047545083047e-15 -0.84056170115922568 -0.54171581714429273 -1.3526543019069123e-14 
1 400.06275440546898 125.163778439636 -96.977116132940495 -0.89529926085651534 -0.34053701861370511 0.28718247241687012 0.3555126722466127 -0.9346714609273532 -2.2204460492503131e-16 0.26842126104660535 0.10209700819131044 0.95787589359819147 
1 394.71787533999299 103.27106638107399 -139.59999999999999 -0.94709830620731705 -0.15040974548646199 0.283516678242972 0.15684554062724659 -0.98762314492186076 -2.0122792321330957e-16 0.28000763340412338 0.044468326675859877 0.95896730557306864 
1 397.23034531149602 87.450575184104594 -139.59999999999999 -0.95571450414154657 -0.090170299930818557 0.28014122078670289 0.093931427050312974 -0.99557866942411521 -1.7347234759768068e-17 0.27890262384167297 0.026314064644111786 0.95995879933262551 
1 397.33855735172602 70.675730300480595 -144.60000000217201 0.95913803402962405 0.054412034325082799 -0.277657274708216 -0.27153077834762512 -0.098829121005669401 -0.95734207117998305 -0.079531554038133764 0.99361568796081956 -0.080016226794486153 
1 395.90574035820202 70.418119809642803 -149.59999999999999 0.17364817766694607 -0.98480775301220536 -4.8789097761847718e-17 0.27520067432637008 0.048525303992906881 0.96016138420721098 -0.94557437531019206 -0.16673027463375462 0.27944608831989903 
1 388.32636397465097 101.27230842706 -138.61753180509601 -0.95238843834243136 -0.11693859621087704 0.28156993310347311 -0.28625276157215535 0.02504387154054448 -0.95782679070413113 0.10495531908378755 -0.99282333232780651 -0.057325489806282354 
1 381.16419721475597 113.192155614725 -138.61753180509601 -0.822486919690253 -0.49419999970714801 0.281569933103473 -0.27169117031191581 -0.093550772225385381 -0.95782679070413135 0.49969908436276023 -0.86430007133257203 -0.057325489806281799 
1 373.24527191504501 102.32856922468 -98.950000000000003 0.121869343405148 -0.99254615164132198 0 0.99254615164132198 0.121869343405148 0 -0 0 1 
1 387.957730392781 121.044035560838 -774345537.18365705 0.93467146092738052 0.35551267224654082 2.211025881730909e-15 -0.35551267224654082 0.93467146092738052 1.0846837446788911e-30 -2.0665827910256778e-15 -7.8604771962042039e-16 1 
1 394.71787533999299 103.27106638107399 -59.299999999999997 0.98762314492186154 0.1568455406272421 1.0591418702610705e-15 -0.1568455406272421 0.98762314492186154 -7.3955709864469846e-32 -1.0460330248256606e-15 -1.6612167924204582e-16 1 
1 385.11769944808799 120.077478988663 -49.300000000000402 -0.89529926083653211 -0.34053701860602803 -0.28718247248827206 0.3555126722465432 -0.93467146092737952 9.7144514654701173e-17 -0.2684212611133503 -0.10209700821667489 0.95787589357678438 
1 394.38759541416198 86.483092806407697 -49.290421737144797 0.94709830623459224 0.15040974549079603 0.28351667814955905 -0.15684554062724909 0.98762314492186032 -4.1633363423443364e-17 -0.2800076333118664 -0.044468326661209326 0.95896730560068599 
1 374.87466663513999 106.879108318202 -135.86802293477601 -0.19021040723890612 0.77742514297924548 -0.59952493529603035 0.9599233482560463 0.27531071795902118 0.052451635339515315 0.20583286047400376 -0.56552113633407919 -0.79863551004729394 
1 384.77336944918699 113.63530624275 -98.950000000000003 0.121869343405149 -0.99254615164132198 0 -0.99254615164132198 -0.121869343405149 0 0 -0 -1 
1 375.92228522611902 107.277563142197 -63.2162910665078 -0.19021040723891303 0.77742514297924314 0.59952493529603113 0.95992334825604542 0.27531071795902601 -0.052451635339509611 -0.20583286047400229 0.56552113633407997 -0.79863551004729361 
1 373.24527191504501 102.32856922468 -98.950000000000003 0.121869343405148 -0.99254615164132198 0 0.99254615164132198 0.121869343405148 0 -0 0 1 
1 388.32636397465097 101.27230842706 -60.282468194901199 -0.99254615164132221 -0.12186934340514603 8.2523591828937023e-16 -8.404617518029439e-16 7.3530871784342514e-17 -1 0.12186934340514603 -0.99254615164132221 -1.7540930566574422e-16 
1 381.164197214757 113.192155614725 -60.282468194901199 -0.85716730070211644 -0.51503807491004738 8.2523590865562553e-16 -7.9770770832133833e-16 -2.7467279111211409e-16 -1 0.51503807491004738 -0.85716730070211644 -1.7540930750084053e-16 
1 374.56649229619001 102.476141210497 -14.2407334081468 -0.95238843834243225 -0.11693859621087703 -0.28156993310347006 0.28625276157215229 -0.025043871540544275 -0.95782679070413224 0.10495531908378776 -0.99282333232780651 0.057325489806281799 
1 368.10428603999401 108.695267570143 -14.2407334081468 -0.822486919690254 -0.49419999970714801 -0.28156993310347 0.27169117031191292 0.09355077222538441 -0.95782679070413224 0.49969908436276012 -0.86430007133257214 0.057325489806281063 
1 397.23034531149602 87.450575184104594 -139.59999999999999 0.99557866942411533 0.093931427050312627 1.0874362883001103e-15 -0.093931427050312627 0.99557866942411533 1.355854680848614e-31 -1.0826283729893224e-15 -1.0214444238632468e-16 1 
1 394.38759541416198 86.483092806407697 -49.290421737144797 -0.95571450418345116 -0.090170299934761416 -0.28014122064247404 0.093931427050301872 -0.99557866942411644 3.4694469519536142e-17 -0.27890262369808205 -0.026314064630561029 0.95995879937471518 
1 397.33855734023098 70.675730294555393 -54.300000001669702 0.95913803388392782 0.054412034316895584 0.27765727521311295 0.27153077883795007 0.098829121184132881 -0.95734207102248903 -0.07953155412117642 0.99361568794351718 0.080016226926801715 
1 398.74521211533698 71.394510411289602 -59.299999999999997 0.99839471932382295 0.0566390715522858 1.62682187229938e-15 0.0566390715522858 -0.99839471932382295 1.4791141972893969e-31 1.6242103665841952e-15 9.2141680427987965e-17 -1 
Triangulations 0

TShapes 190
Ve
1e-07
362.471637400286 131.928886779436 -49.3000000000005
0 0

0101101
*
Ve
1e-07
362.471637400286 131.928886779436 -149.6
0 0

0101101
*
Ed
 1e-07 1 1 0
1  1 0 116.32947456177 216.629474561769
4 C0 1 0 2 0
0

0101000
+190 0 -189 0 *
Ve
1e-07
376.868976617814 137.16908970725 -49.3000000000006
0 0

0101101
*
Ed
 1e-07 1 1 0
1  2 0 -3.08800020286773 12.2333281752214
4 C0 1 0 3 0
0

0101000
+187 0 -190 0 *
Ve
1e-07
379.678031407028 138.191502036947 -59.287848692768
0 0

0101101
*
Ed
 1e-07 1 1 0
1  3 0 -35.9065366689025 -25.4809317804398
4 C0 1 0 4 0
0

0101000
+185 0 -187 0 *
Ve
1e-07
379.678031407028 138.191502036947 -139.612151301744
0 0

0101101
*
Ed
 1e-07 1 1 0
1  4 0 -110.987151301744 -30.6628486927681
4 C0 1 0 5 0
0

0101000
+183 0 -185 0 *
Ve
1e-07
376.868976617814 137.16908970725 -149.6
0 0

0101101
*
Ed
 1e-07 1 1 0
1  5 0 -71.7572288059655 -61.3316239122446
4 C0 1 0 6 0
0

0101000
+181 0 -183 0 *
Ed
 1e-07 1 1 0
1  6 0 -9.76759476014567 5.55373361794348
4 C0 1 0 7 0
0

0101000
+189 0 -181 0 *
Wi

0101100
-188 0 -186 0 -184 0 -182 0 -180 0 -179 0 *
Fa
0  1e-07 1 0

0111000
+178 0 *
Ve
6.85273426344691e-07
385.117699459159 120.077478997631 -149.6
0 0

0101101
*
Ed
 1e-07 1 1 0
1  7 0 -19.3626078433095 -0.384605178052862
4 C0 7 0 6 0
0

0101000
+176 0 -181 0 *
Ve
1e-07
391.87784569769 102.304509796677 -149.6
0 0

0101101
*
Ed
 1e-07 1 1 0
1  8 0 -62.8395760019065 -43.8243712597959
4 C0 7 0 8 0
0

0101000
+174 0 -176 0 *
Ve
1e-07
394.390315669197 86.4840185997099 -149.6
0 0

0101101
*
Ed
 1e-07 1 1 0
1  9 0 -68.181356192302 -52.162603211154
4 C0 7 0 9 0
0

0101000
+172 0 -174 0 *
Ve
1e-07
395.905182473034 70.4279538268926 -149.6
0 0

0101101
*
Ed
 1e-07 1 1 0
1  10 0 -75.4040701108094 -59.276700907425
4 C0 7 0 10 0
0

0101000
+170 0 -172 0 *
Ve
1e-07
395.905740358202 70.4181198096427 -149.6
0 0

0101101
*
Ed
 1e-07 1 1 0
1  11 0 -0.00492491449504254 0.00492491449494645
4 C0 7 0 11 0
0

0101000
+170 0 -168 0 *
Ve
1e-07
389.017000822591 69.2034491664413 -149.6
0 0

0101101
*
Ed
 1e-07 1 1 0
1  12 0 -3.49750472340492 3.49750472340397
4 C0 7 0 12 0
0

0101000
+166 0 -168 0 *
Ve
1e-07
385.211145580525 100.199652712535 -149.6
0 0

0101101
*
Ed
 1e-07 1 1 0
1  13 0 -15.614489812306 15.614489812306
4 C0 7 0 13 0
0

0101000
+166 0 -164 0 *
Ve
1e-07
383.197708474248 103.550574777516 -149.6
0 0

0101101
*
Ed
 1e-07 1 1 0
1  14 0 -1.95464879623632 1.95464879623599
4 C0 7 0 14 0
0

0101000
+164 0 -162 0 *
Ve
1e-07
373.245271915045 102.32856922468 -149.6
0 0

0101101
*
Ed
 1e-07 1 1 0
1  15 0 -5.01358881032593 5.01358881032694
4 C0 7 0 15 0
0

0101000
+160 0 -162 0 *
Ed
 1e-07 1 1 0
1  16 0 0 31.5
4 C0 7 0 2 0
0

0101000
+189 0 -160 0 *
Wi

0101100
+179 0 -175 0 -173 0 -171 0 -169 0 +167 0 -165 0 +163 0 +161 0 -159 0 
-158 0 *
Fa
0  1e-07 7 0

0111000
+157 0 *
Ve
3.05553651607226e-06
387.957727532665 121.044038247441 -139.600000772742
0 0

0101101
*
Ed
 6.85273426344691e-07 1 1 0
1  17 0 -27.1391852758654 -16.6988796870981
4 C0 8 0 6 0
0

0101000
-155 0 +176 0 *
Ve
1.69111272398795e-06
394.717875339993 103.271066381074 -139.6
0 0

0101101
*
Ed
 1e-07 1 1 0
1  18 0 0 10.4403065089106
4 C0 8 0 9 0
0

0101000
+153 0 -174 0 *
Ed
 7.38778458701187e-07 1 1 0
1  19 0 -0.226544300292752 18.7886634908305
4 C0 8 0 16 0
0

0101000
-153 0 +155 0 *
Wi

0101100
-154 0 -173 0 -152 0 -151 0 *
Fa
0  1e-07 8 0

0111000
+150 0 *
Ve
1.61169692263541e-06
394.717875339993 103.271066381074 -59.3
0 0

0101101
*
Ed
 5.01413512185846e-07 1 1 0
1  20 0 -40.1500000000003 40.1499999999997
4 C0 16 0 17 0
0

0101000
+148 0 -153 0 *
Ve
5.77805532532837e-06
387.957726574529 121.044040783474 -59.3000000342727
0 0

0101101
*
Ed
 1e-07 1 1 0
1  21 0 -387172738.941829 -387172658.641828
4 C0 16 0 5 0
0

0101000
+146 0 -155 0 *
Ed
 1.37009591675679e-06 1 1 0
1  22 0 -19.068334594665 -0.053124092554544
4 C0 16 0 18 0
0

0101000
-146 0 +148 0 *
Wi

0101100
+147 0 -151 0 -145 0 -144 0 *
Fa
0  1e-07 16 0

0111000
+143 0 *
Ve
1e-07
391.87784569769 102.304509796677 -49.3000000000005
0 0

0101101
*
Ed
 1e-07 1 1 0
1  23 0 9.52807112717562e-14 10.4403065089102
4 C0 18 0 19 0
0

0101000
+141 0 -148 0 *
Ve
1.2669236389251e-06
385.117699448088 120.077478988663 -49.3000000000005
0 0

0101101
*
Ed
 1e-07 1 1 0
1  24 0 9.42231777164752 28.4375225093119
4 C0 18 0 3 0
0

0101000
+139 0 -141 0 *
Ed
 1.2669236389251e-06 1 1 0
1  25 0 0.3307665516959 10.7710728914313
4 C0 18 0 4 0
0

0101000
+139 0 -146 0 *
Wi

0101100
-144 0 -140 0 -138 0 +137 0 *
Fa
0  1e-07 18 0

0111000
+136 0 *
Ve
1e-07
373.245271915045 102.32856922468 -141.251911881043
0 0

0101101
*
Ed
 1e-07 1 1 0
1  26 0 -4.17404405947801 4.174044059479
4 C0 2 0 15 0
0

0101000
+160 0 -134 0 *
Ve
1e-07
369.799152817909 111.796703628813 -127.880902623886
0 0

0101101
*
Ed
 1e-07 1 1 0
1  27 0 -8.3711587382118 8.37115873821154
4 C0 2 0 20 0
0

0101000
+132 0 -134 0 *
Ve
1e-07
369.799152817909 111.796703628813 -71.0190973761143
0 0

0101101
*
Ed
 1e-07 1 1 0
1  28 0 -28.4309026238858 28.4309026238859
4 C0 2 0 21 0
0

0101000
+132 0 -130 0 *
Ve
1e-07
373.245271915045 102.32856922468 -57.6480881189573
0 0

0101101
*
Ed
 1e-07 1 1 0
1  29 0 -8.3711587382114 8.37115873821197
4 C0 2 0 22 0
0

0101000
+130 0 -128 0 *
Ve
1e-07
373.245271915045 102.32856922468 -49.3000000000005
0 0

0101101
*
Ed
 1e-07 1 1 0
1  30 0 -4.1740440594784 4.1740440594784
4 C0 2 0 23 0
0

0101000
+128 0 -126 0 *
Ed
 1e-07 1 1 0
1  31 0 -31.5 0
4 C0 2 0 3 0
0

0101000
+126 0 -190 0 *
Wi

0101100
+188 0 +158 0 +133 0 -131 0 +129 0 +127 0 +125 0 +124 0 *
Fa
0  1e-07 2 0

0111000
+123 0 *
Ve
1e-07
392.195117810992 69.7638369393444 -138.617531805096
0 0

0101101
*
Ed
 1e-07 1 1 0
1  32 0 -5.72339649377999 5.72339649378031
4 C0 13 0 12 0
0

0101000
+121 0 -166 0 *
Ve
1e-07
388.32636397465 101.27230842706 -138.617531805096
0 0

0101101
*
Ed
 1e-07 1 1 0
1  33 0 -15.8725473045317 15.8725473045319
4 C0 13 0 24 0
0

0101000
+119 0 -121 0 *
Ed
 1e-07 1 1 0
1  34 0 -5.73301368341875 5.73301368341915
4 C0 13 0 14 0
0

0101000
+119 0 -164 0 *
Wi

0101100
-163 0 -120 0 -118 0 +117 0 *
Fa
0  1e-07 13 0

0111000
+116 0 *
Ve
1e-07
385.25411804683 103.803070123922 -143.14990373057
0 0

0101101
*
Ed
 1e-07 1 1 0
1  35 0 -3.38734099682473 3.38734099682474
4 C0 14 0 15 0
0

0101000
+114 0 -162 0 *
Ve
1e-07
384.77589443519 107.181282034295 -138.617531805096
0 0

0101101
*
Ed
 1e-07 1 1 0
1  36 0 -3.44680297673153 3.44680297673238
4 C0 14 0 25 0
0

0101000
+112 0 -119 0 *
Ed
 1e-07 1 1 0
1  37 0 -2.83652114415412 2.83652114415475
4 C0 14 0 20 0
0

0101000
+112 0 -114 0 *
Wi

0101100
+113 0 -161 0 -117 0 -111 0 +110 0 *
Fa
0  1e-07 14 0

0111000
+109 0 *
Ed
 1e-07 1 1 0
1  38 0 -6.12349800725869 6.12349800725948
4 C0 15 0 20 0
0

0101000
+134 0 -114 0 *
Wi

0101100
-107 0 -133 0 +159 0 -113 0 *
Fa
0  1e-07 15 0

0111000
+106 0 *
Ve
1e-07
388.32636397465 101.272308427061 -60.2824681949012
0 0

0101101
*
Ve
1e-07
392.195117810993 69.7638369393443 -60.2824681949012
0 0

0101101
*
Ed
 1e-07 1 1 0
1  39 0 -15.8725473045327 15.8725473045321
4 C0 26 0 24 0
0

0101000
+104 0 -103 0 *
Ve
1e-07
389.017000822592 69.2034491664415 -49.3000000000005
0 0

0101101
*
Ed
 1e-07 1 1 0
1  40 0 -5.72339649377839 5.72339649377875
4 C0 26 0 12 0
0

0101000
+101 0 -103 0 *
Ve
1e-07
385.211145580527 100.199652712536 -49.3000000000005
0 0

0101101
*
Ed
 1e-07 1 1 0
1  41 0 -15.6144898123061 15.6144898123066
4 C0 26 0 3 0
0

0101000
+101 0 -99 0 *
Ed
 1e-07 1 1 0
1  42 0 -5.73301368341714 5.73301368341707
4 C0 26 0 27 0
0

0101000
+99 0 -104 0 *
Wi

0101100
+102 0 -100 0 +98 0 +97 0 *
Fa
0  1e-07 26 0

0111000
+96 0 *
Ed
 1e-07 1 1 0
1  43 0 -39.1675318050973 39.1675318050975
4 C0 24 0 12 0
0

0101000
+103 0 -121 0 *
Ed
 1e-07 1 1 0
1  44 0 -39.1675318050973 39.1675318050975
4 C0 24 0 25 0
0

0101000
+104 0 -119 0 *
Wi

0101100
+118 0 -94 0 -102 0 +93 0 *
Fa
0  1e-07 24 0

0111000
+92 0 *
Ve
1e-07
381.164197214757 113.192155614722 -129.677141945967
0 0

0101101
*
Ed
 1e-07 1 1 0
1  45 0 -5.68123069513273 5.68123069512843
4 C0 25 0 20 0
0

0101000
+112 0 -90 0 *
Ve
1e-07
384.775894435191 107.181282034293 -60.2824681949012
0 0

0101101
*
Ed
 1e-07 1 1 0
1  46 0 -3.44680297673067 3.44680297673016
4 C0 25 0 27 0
0

0101000
+88 0 -104 0 *
Ve
1e-07
381.164197214758 113.192155614722 -69.2228580540332
0 0

0101101
*
Ed
 1e-07 1 1 0
1  47 0 -5.68123069513472 5.68123069512984
4 C0 25 0 22 0
0

0101000
+88 0 -86 0 *
Ed
 1e-07 1 1 0
1  48 0 -30.2271419459669 30.2271419459669
4 C0 25 0 21 0
0

0101000
+90 0 -86 0 *
Wi

0101100
-89 0 +111 0 -93 0 -87 0 +85 0 -84 0 *
Fa
0  1e-07 25 0

0111000
+83 0 *
Ed
 1e-07 1 1 0
1  49 0 -5.7952134578783 5.79521345787826
4 C0 20 0 21 0
0

0101000
+90 0 -132 0 *
Wi

0101100
-110 0 +89 0 +81 0 +131 0 +107 0 *
Fa
0  1e-07 20 0

0111000
-80 0 *
Ed
 1e-07 1 1 0
1  50 0 -5.79521345787922 5.79521345787835
4 C0 21 0 22 0
0

0101000
+86 0 -130 0 *
Wi

0101100
+78 0 -129 0 -81 0 +84 0 *
Fa
0  1e-07 21 0

0111000
+77 0 *
Ve
1e-07
385.254118046831 103.803070123922 -55.7500962694297
0 0

0101101
*
Ed
 1e-07 1 1 0
1  51 0 -2.83652114415251 2.8365211441532
4 C0 22 0 27 0
0

0101000
+88 0 -75 0 *
Ed
 1e-07 1 1 0
1  52 0 -6.1234980072596 6.12349800725966
4 C0 22 0 23 0
0

0101000
+128 0 -75 0 *
Wi

0101100
-85 0 +74 0 -73 0 -127 0 -78 0 *
Fa
0  1e-07 22 0

0111000
-72 0 *
Ve
1e-07
383.19770847425 103.550574777516 -49.3000000000005
0 0

0101101
*
Ed
 1e-07 1 1 0
1  53 0 -5.01358881032694 5.01358881032796
4 C0 23 0 3 0
0

0101000
+126 0 -70 0 *
Ed
 1e-07 1 1 0
1  54 0 -3.38734099682404 3.38734099682437
4 C0 23 0 27 0
0

0101000
+70 0 -75 0 *
Wi

0101100
-69 0 -125 0 +73 0 -68 0 *
Fa
0  1e-07 23 0

0111000
+67 0 *
Ed
 1e-07 1 1 0
1  55 0 -1.95464879623596 1.95464879623546
4 C0 27 0 3 0
0

0101000
+99 0 -70 0 *
Wi

0101100
-74 0 +87 0 -97 0 +65 0 +68 0 *
Fa
0  1e-07 27 0

0111000
+64 0 *
Ve
1e-07
397.2303453115 87.4505751841069 -59.3
0 0

0101101
*
Ed
 1e-07 1 1 0
1  56 0 -8.26419416257594 7.75455881857206
4 C0 17 0 19 0
0

0101000
+148 0 -62 0 *
Ve
1e-07
397.2303453115 87.4505751841069 -139.6
0 0

0101101
*
Ed
 1e-07 1 1 0
1  57 0 -803.000000000004 -0
4 C0 17 0 28 0
0

0101000
+60 0 -62 0 *
Ed
 1e-07 1 1 0
1  58 0 9.96482800835738e-13 16.018752981149
4 C0 17 0 9 0
0

0101000
+153 0 -60 0 *
Wi

0101100
+61 0 -59 0 -58 0 -147 0 *
Fa
0  1e-07 17 0

0111000
+57 0 *
Ve
1e-07
398.745212115337 71.3945104112896 -59.3
0 0

0101101
*
Ed
 1e-07 1 1 0
1  59 0 -15.7792785715436 0.348090631840793
4 C0 29 0 28 0
0

0101000
+55 0 -62 0 *
Ve
1e-07
394.390315669197 86.4840185997098 -49.2999999999993
0 0

0101101
*
Ed
 1e-07 1 1 0
1  60 0 -104.403065089113 -0
4 C0 29 0 19 0
0

0101000
+53 0 -62 0 *
Ve
1e-07
395.905182473034 70.4279538268927 -49.3000000000005
0 0

0101101
*
Ed
 1e-07 1 1 0
1  61 0 26.0212745927801 42.1486437961644
4 C0 29 0 3 0
0

0101000
+53 0 -51 0 *
Ed
 1e-07 1 1 0
1  62 0 0 10.4403065089101
4 C0 29 0 30 0
0

0101000
+51 0 -55 0 *
Wi

0101100
+54 0 -52 0 +50 0 +49 0 *
Fa
0  1e-07 29 0

0111000
-48 0 *
Ve
1e-07
398.745212115336 71.3945104112897 -139.6
0 0

0101101
*
Ed
 1e-07 1 1 0
1  63 0 -40.1500000000003 40.1499999999997
4 C0 28 0 31 0
0

0101000
+55 0 -46 0 *
Ed
 1e-07 1 1 0
1  64 0 -1.91822301861491e-12 16.1273692033823
4 C0 28 0 10 0
0

0101000
+60 0 -46 0 *
Wi

0101100
-54 0 +45 0 -44 0 +59 0 *
Fa
0  1e-07 28 0

0111000
+43 0 *
Ed
 1e-07 1 1 0
1  65 0 -104.40306508911 -0
4 C0 9 0 10 0
0

0101000
+60 0 -172 0 *
Wi

0101100
-152 0 +58 0 +41 0 +171 0 *
Fa
0  1e-07 9 0

0111000
-40 0 *
Ed
 1e-07 1 1 0
1  66 0 2.72078034397441e-13 10.4403065089106
4 C0 10 0 11 0
0

0101000
+46 0 -170 0 *
Wi

0101100
+44 0 +38 0 +169 0 -41 0 *
Fa
0  1e-07 10 0

0111000
-37 0 *
Ve
1e-07
398.771932217747 70.9235067663675 -139.6
0 0

0101101
*
Ve
1e-07
398.771932217747 70.9235067663674 -59.3
0 0

0101101
*
Ed
 1e-07 1 1 0
1  67 0 0 80.3
4 C0 31 0 12 0
0

0101000
+35 0 -34 0 *
Ed
 1e-07 1 1 0
1  68 0 -0.235880476832501 0.235880476832443
4 C0 31 0 11 0
0

0101000
+46 0 -35 0 *
Ed
 1e-07 1 1 0
1  69 0 -0.235880476832347 0.235880476832542
4 C0 31 0 30 0
0

0101000
+55 0 -34 0 *
Wi

0101100
-33 0 -32 0 -45 0 +31 0 *
Fa
0  1e-07 31 0

0111000
+30 0 *
Ve
1e-07
395.905740358203 70.4181198096428 -49.3000000000005
0 0

0101101
*
Ed
 1e-07 1 1 0
1  70 0 0 10.414915830276
4 C0 12 0 30 0
0

0101000
+34 0 -28 0 *
Ed
 1e-07 1 1 0
1  71 0 -3.4975047234039 3.49750472340492
4 C0 12 0 3 0
0

0101000
+101 0 -28 0 *
Ed
 1e-07 1 1 0
1  72 0 -5.20745791511251 5.20745791516425
4 C0 12 0 11 0
0

0101000
+168 0 -35 0 *
Wi

0101100
+27 0 -26 0 +100 0 +94 0 +120 0 +165 0 +25 0 +33 0 *
Fa
0  1e-07 12 0

0111000
+24 0 *
Ed
 1e-07 1 1 0
1  73 0 -0.00492491449504254 0.00492491449500118
4 C0 30 0 3 0
0

0101000
+51 0 -28 0 *
Wi

0101100
-27 0 -31 0 -49 0 +22 0 *
Fa
0  1e-07 30 0

0111000
+21 0 *
Wi

0101100
-25 0 -167 0 -38 0 +32 0 *
Fa
0  1e-07 11 0

0111000
+19 0 *
Ed
 1e-07 1 1 0
1  74 0 -26.3707868421942 -10.3520338610461
4 C0 19 0 3 0
0

0101000
+53 0 -141 0 *
Wi

0101100
+52 0 -61 0 -140 0 -17 0 *
Fa
0  1e-07 19 0

0111000
+16 0 *
Ed
 1e-07 1 1 0
1  75 0 0.127924308366316 19.1696949713237
4 C0 6 0 5 0
0

0101000
+183 0 -155 0 *
Wi

0101100
+180 0 +14 0 -154 0 +175 0 *
Fa
0  1e-07 6 0

0111000
-13 0 *
Ed
 1e-07 1 1 0
1  76 0 0.384605175267703 19.362607843789
4 C0 3 0 4 0
0

0101000
+187 0 -139 0 *
Wi

0101100
+186 0 -124 0 +69 0 -65 0 -98 0 +26 0 -22 0 -50 0 +17 0 -138 0 
-11 0 *
Fa
0  1e-07 3 0

0111000
+10 0 *
Ed
 1e-07 1 1 0
1  77 0 -19.195313571502 -0.153545608384807
4 C0 4 0 5 0
0

0101000
+146 0 -185 0 *
Wi

0101100
+184 0 +11 0 +137 0 +8 0 *
Fa
0  1e-07 4 0

0111000
-7 0 *
Wi

0101100
+182 0 -8 0 +145 0 -14 0 *
Fa
0  1e-07 5 0

0111000
+5 0 *
Sh

0101100
+177 0 +156 0 -149 0 +142 0 -135 0 +122 0 +115 0 +108 0 +105 0 +95 0 
+91 0 +82 0 -79 0 +76 0 -71 0 +66 0 +63 0 +56 0 -47 0 +42 0 
-39 0 -36 0 +29 0 +23 0 +20 0 +18 0 +15 0 -12 0 +9 0 -6 0 
+4 0 *
So

0100000
+3 0 *
Co

1100000
+2 0 *

+1 0 